<svg xmlns="http://www.w3.org/2000/svg" xmlns:xlink="http://www.w3.org/1999/xlink" width="384" zoomAndPan="magnify" viewBox="0 0 288 205.499994" height="274" preserveAspectRatio="xMidYMid meet" version="1.0"><defs><g/><clipPath id="723e5c64ee"><path d="M 77.253906 78.859375 L 187.128906 78.859375 L 187.128906 112.996094 L 77.253906 112.996094 Z M 77.253906 78.859375 " clip-rule="nonzero"/></clipPath><clipPath id="4be985c58e"><path d="M 87.730469 78.859375 L 176.601562 78.859375 C 182.386719 78.859375 187.078125 83.546875 187.078125 89.332031 L 187.078125 102.519531 C 187.078125 108.304688 182.386719 112.996094 176.601562 112.996094 L 87.730469 112.996094 C 81.945312 112.996094 77.253906 108.304688 77.253906 102.519531 L 77.253906 89.332031 C 77.253906 83.546875 81.945312 78.859375 87.730469 78.859375 Z M 87.730469 78.859375 " clip-rule="nonzero"/></clipPath><clipPath id="6377102764"><path d="M 0.347656 170.003906 L 83.582031 170.003906 L 83.582031 204.375 L 0.347656 204.375 Z M 0.347656 170.003906 " clip-rule="nonzero"/></clipPath><clipPath id="3686d69d39"><path d="M 66.570312 170.003906 L 17.261719 170.003906 L 0.347656 187.191406 L 17.261719 204.375 L 66.570312 204.375 L 83.484375 187.191406 Z M 66.570312 170.003906 " clip-rule="nonzero"/></clipPath><clipPath id="f73d734ce7"><path d="M 89.910156 169.4375 L 174.523438 169.4375 L 174.523438 204.375 L 89.910156 204.375 Z M 89.910156 169.4375 " clip-rule="nonzero"/></clipPath><clipPath id="e709a7e415"><path d="M 157.226562 169.4375 L 107.105469 169.4375 L 89.910156 186.90625 L 107.105469 204.375 L 157.226562 204.375 L 174.421875 186.90625 Z M 157.226562 169.4375 " clip-rule="nonzero"/></clipPath><clipPath id="ae2d0de8d1"><path d="M 174.863281 169.4375 L 259.476562 169.4375 L 259.476562 204.375 L 174.863281 204.375 Z M 174.863281 169.4375 " clip-rule="nonzero"/></clipPath><clipPath id="7ed12a4c16"><path d="M 242.179688 169.4375 L 192.058594 169.4375 L 174.863281 186.90625 L 192.058594 204.375 L 242.179688 204.375 L 259.375 186.90625 Z M 242.179688 169.4375 " clip-rule="nonzero"/></clipPath><clipPath id="7f86fe8dbf"><path d="M 77.253906 0 L 187.128906 0 L 187.128906 34.136719 L 77.253906 34.136719 Z M 77.253906 0 " clip-rule="nonzero"/></clipPath><clipPath id="67d2678375"><path d="M 87.730469 0 L 176.601562 0 C 182.386719 0 187.078125 4.691406 187.078125 10.472656 L 187.078125 23.660156 C 187.078125 29.445312 182.386719 34.136719 176.601562 34.136719 L 87.730469 34.136719 C 81.945312 34.136719 77.253906 29.445312 77.253906 23.660156 L 77.253906 10.472656 C 77.253906 4.691406 81.945312 0 87.730469 0 Z M 87.730469 0 " clip-rule="nonzero"/></clipPath><clipPath id="c825864815"><path d="M 202.59375 58.851562 L 287.207031 58.851562 L 287.207031 93.789062 L 202.59375 93.789062 Z M 202.59375 58.851562 " clip-rule="nonzero"/></clipPath><clipPath id="139f929b5e"><path d="M 269.910156 58.851562 L 219.789062 58.851562 L 202.59375 76.320312 L 219.789062 93.789062 L 269.910156 93.789062 L 287.105469 76.320312 Z M 269.910156 58.851562 " clip-rule="nonzero"/></clipPath></defs><g clip-path="url(#723e5c64ee)"><g clip-path="url(#4be985c58e)"><path fill="#8c52ff" d="M 77.253906 78.859375 L 187.128906 78.859375 L 187.128906 112.996094 L 77.253906 112.996094 Z M 77.253906 78.859375 " fill-opacity="1" fill-rule="nonzero"/></g></g><g fill="#ffffff" fill-opacity="1"><g transform="translate(113.015598, 100.556027)"><g><path d="M 8.75 -0.5 C 8.414062 -0.28125 8.015625 -0.0976562 7.546875 0.046875 C 7.078125 0.191406 6.550781 0.265625 5.96875 0.265625 C 4.863281 0.265625 4.039062 -0.015625 3.5 -0.578125 C 2.96875 -1.140625 2.703125 -1.910156 2.703125 -2.890625 L 2.703125 -6.734375 L 0.921875 -6.734375 L 0.921875 -8.46875 L 2.703125 -8.46875 L 2.703125 -10.3125 L 5.21875 -10.609375 L 5.21875 -8.46875 L 7.9375 -8.46875 L 7.703125 -6.734375 L 5.21875 -6.734375 L 5.21875 -2.890625 C 5.21875 -2.460938 5.3125 -2.160156 5.5 -1.984375 C 5.695312 -1.804688 6.003906 -1.71875 6.421875 -1.71875 C 6.722656 -1.71875 6.992188 -1.753906 7.234375 -1.828125 C 7.484375 -1.898438 7.707031 -1.988281 7.90625 -2.09375 Z M 8.75 -0.5 "/></g></g></g><g fill="#ffffff" fill-opacity="1"><g transform="translate(122.58989, 100.556027)"><g><path d="M 3.640625 -12.078125 L 3.640625 -7.640625 C 3.992188 -8.015625 4.378906 -8.289062 4.796875 -8.46875 C 5.210938 -8.65625 5.65625 -8.75 6.125 -8.75 C 6.882812 -8.75 7.460938 -8.523438 7.859375 -8.078125 C 8.253906 -7.640625 8.453125 -7.019531 8.453125 -6.21875 L 8.453125 0 L 5.9375 0 L 5.9375 -5.515625 C 5.9375 -6.023438 5.878906 -6.378906 5.765625 -6.578125 C 5.648438 -6.785156 5.4375 -6.890625 5.125 -6.890625 C 4.945312 -6.890625 4.773438 -6.847656 4.609375 -6.765625 C 4.441406 -6.679688 4.273438 -6.5625 4.109375 -6.40625 C 3.953125 -6.257812 3.796875 -6.078125 3.640625 -5.859375 L 3.640625 0 L 1.109375 0 L 1.109375 -11.84375 Z M 3.640625 -12.078125 "/></g></g></g><g fill="#ffffff" fill-opacity="1"><g transform="translate(132.164181, 100.556027)"><g><path d="M 3.296875 -3.5 C 3.359375 -3.039062 3.476562 -2.664062 3.65625 -2.375 C 3.84375 -2.09375 4.078125 -1.882812 4.359375 -1.75 C 4.648438 -1.625 4.976562 -1.5625 5.34375 -1.5625 C 5.726562 -1.5625 6.097656 -1.625 6.453125 -1.75 C 6.816406 -1.882812 7.164062 -2.054688 7.5 -2.265625 L 8.515625 -0.890625 C 8.117188 -0.554688 7.632812 -0.28125 7.0625 -0.0625 C 6.5 0.15625 5.859375 0.265625 5.140625 0.265625 C 4.171875 0.265625 3.359375 0.0703125 2.703125 -0.3125 C 2.046875 -0.695312 1.550781 -1.222656 1.21875 -1.890625 C 0.894531 -2.566406 0.734375 -3.347656 0.734375 -4.234375 C 0.734375 -5.066406 0.890625 -5.820312 1.203125 -6.5 C 1.523438 -7.1875 1.992188 -7.734375 2.609375 -8.140625 C 3.222656 -8.546875 3.972656 -8.75 4.859375 -8.75 C 5.671875 -8.75 6.375 -8.578125 6.96875 -8.234375 C 7.5625 -7.890625 8.019531 -7.390625 8.34375 -6.734375 C 8.675781 -6.085938 8.84375 -5.3125 8.84375 -4.40625 C 8.84375 -4.257812 8.835938 -4.101562 8.828125 -3.9375 C 8.816406 -3.769531 8.804688 -3.625 8.796875 -3.5 Z M 4.859375 -7.0625 C 4.410156 -7.0625 4.046875 -6.898438 3.765625 -6.578125 C 3.492188 -6.253906 3.328125 -5.734375 3.265625 -5.015625 L 6.375 -5.015625 C 6.375 -5.628906 6.253906 -6.125 6.015625 -6.5 C 5.785156 -6.875 5.398438 -7.0625 4.859375 -7.0625 Z M 4.859375 -7.0625 "/></g></g></g><g fill="#ffffff" fill-opacity="1"><g transform="translate(141.738473, 100.556027)"><g><path d="M 1.109375 0 L 1.109375 -8.46875 L 3.3125 -8.46875 L 3.5 -7.484375 C 3.875 -7.910156 4.269531 -8.226562 4.6875 -8.4375 C 5.113281 -8.644531 5.59375 -8.75 6.125 -8.75 C 6.84375 -8.75 7.410156 -8.523438 7.828125 -8.078125 C 8.242188 -7.640625 8.453125 -7.019531 8.453125 -6.21875 L 8.453125 0 L 5.9375 0 L 5.9375 -5.5 C 5.9375 -5.84375 5.910156 -6.113281 5.859375 -6.3125 C 5.816406 -6.519531 5.734375 -6.664062 5.609375 -6.75 C 5.492188 -6.84375 5.332031 -6.890625 5.125 -6.890625 C 4.945312 -6.890625 4.773438 -6.847656 4.609375 -6.765625 C 4.441406 -6.691406 4.273438 -6.582031 4.109375 -6.4375 C 3.953125 -6.300781 3.796875 -6.128906 3.640625 -5.921875 L 3.640625 0 Z M 1.109375 0 "/></g></g></g><g clip-path="url(#6377102764)"><g clip-path="url(#3686d69d39)"><path fill="#64a65f" d="M 0.347656 170.003906 L 83.449219 170.003906 L 83.449219 204.375 L 0.347656 204.375 Z M 0.347656 170.003906 " fill-opacity="1" fill-rule="nonzero"/></g></g><g fill="#ffffff" fill-opacity="1"><g transform="translate(31.141784, 190.20668)"><g><path d="M 4.71875 -6.359375 L 4.71875 -1.296875 L 6.34375 -1.296875 L 6.34375 0 L 1.03125 0 L 1.03125 -1.296875 L 2.828125 -1.296875 L 2.828125 -5.0625 L 1.09375 -5.0625 L 1.09375 -6.359375 Z M 3.578125 -9.6875 C 3.898438 -9.6875 4.164062 -9.582031 4.375 -9.375 C 4.582031 -9.175781 4.6875 -8.925781 4.6875 -8.625 C 4.6875 -8.3125 4.582031 -8.050781 4.375 -7.84375 C 4.164062 -7.644531 3.898438 -7.546875 3.578125 -7.546875 C 3.242188 -7.546875 2.972656 -7.644531 2.765625 -7.84375 C 2.554688 -8.050781 2.453125 -8.3125 2.453125 -8.625 C 2.453125 -8.925781 2.554688 -9.175781 2.765625 -9.375 C 2.972656 -9.582031 3.242188 -9.6875 3.578125 -9.6875 Z M 3.578125 -9.6875 "/></g></g></g><g fill="#ffffff" fill-opacity="1"><g transform="translate(38.317371, 190.20668)"><g><path d="M 0.84375 0 L 0.84375 -6.359375 L 2.484375 -6.359375 L 2.625 -5.625 C 2.90625 -5.9375 3.203125 -6.171875 3.515625 -6.328125 C 3.828125 -6.484375 4.1875 -6.5625 4.59375 -6.5625 C 5.132812 -6.5625 5.5625 -6.394531 5.875 -6.0625 C 6.1875 -5.738281 6.34375 -5.273438 6.34375 -4.671875 L 6.34375 0 L 4.453125 0 L 4.453125 -4.125 C 4.453125 -4.382812 4.429688 -4.585938 4.390625 -4.734375 C 4.359375 -4.890625 4.296875 -5 4.203125 -5.0625 C 4.117188 -5.132812 4 -5.171875 3.84375 -5.171875 C 3.707031 -5.171875 3.578125 -5.140625 3.453125 -5.078125 C 3.328125 -5.023438 3.203125 -4.941406 3.078125 -4.828125 C 2.960938 -4.722656 2.847656 -4.597656 2.734375 -4.453125 L 2.734375 0 Z M 0.84375 0 "/></g></g></g><g fill="#ffffff" fill-opacity="1"><g transform="translate(45.492958, 190.20668)"><g><path d="M 6.5625 -0.375 C 6.3125 -0.207031 6.007812 -0.0703125 5.65625 0.03125 C 5.3125 0.144531 4.914062 0.203125 4.46875 0.203125 C 3.644531 0.203125 3.03125 -0.0078125 2.625 -0.4375 C 2.21875 -0.863281 2.015625 -1.441406 2.015625 -2.171875 L 2.015625 -5.046875 L 0.6875 -5.046875 L 0.6875 -6.359375 L 2.015625 -6.359375 L 2.015625 -7.734375 L 3.90625 -7.953125 L 3.90625 -6.359375 L 5.953125 -6.359375 L 5.78125 -5.046875 L 3.90625 -5.046875 L 3.90625 -2.171875 C 3.90625 -1.847656 3.976562 -1.617188 4.125 -1.484375 C 4.269531 -1.347656 4.5 -1.28125 4.8125 -1.28125 C 5.039062 -1.28125 5.242188 -1.304688 5.421875 -1.359375 C 5.609375 -1.421875 5.78125 -1.492188 5.9375 -1.578125 Z M 6.5625 -0.375 "/></g></g></g><path stroke-linecap="round" transform="matrix(0.74818, 0, 0, 0.74818, 40.41966, 94.430306)" fill="none" stroke-linejoin="miter" d="M 47.232182 1.998818 L 24.614784 1.998818 C 12.126137 1.998818 2.002606 12.12757 2.002606 24.616216 L 2.002606 98.01312 " stroke="#acb8c0" stroke-width="4" stroke-opacity="1" stroke-miterlimit="4"/><path stroke-linecap="round" transform="matrix(0.74818, 0, 0, 0.74818, 40.41966, 94.430306)" fill="none" stroke-linejoin="round" d="M 8.001542 91.01175 L 2.002606 99.010332 L -4.001551 91.01175 " stroke="#acb8c0" stroke-width="4" stroke-opacity="1" stroke-miterlimit="4"/><g clip-path="url(#f73d734ce7)"><g clip-path="url(#e709a7e415)"><path fill="#577355" d="M 89.910156 169.4375 L 174.386719 169.4375 L 174.386719 204.375 L 89.910156 204.375 Z M 89.910156 169.4375 " fill-opacity="1" fill-rule="nonzero"/></g></g><g fill="#ffffff" fill-opacity="1"><g transform="translate(118.996074, 190.385072)"><g><path d="M 1.625 -5.078125 L 1.421875 -8.140625 L 3.0625 -8.140625 L 2.859375 -5.078125 Z M 3.71875 -5.078125 L 3.515625 -8.140625 L 5.171875 -8.140625 L 4.953125 -5.078125 Z M 3.71875 -5.078125 "/></g></g></g><g fill="#ffffff" fill-opacity="1"><g transform="translate(125.575296, 190.385072)"><g><path d="M 3.296875 -2.265625 C 3.640625 -2.265625 3.921875 -2.148438 4.140625 -1.921875 C 4.367188 -1.691406 4.484375 -1.40625 4.484375 -1.0625 C 4.484375 -0.851562 4.441406 -0.640625 4.359375 -0.421875 C 4.285156 -0.203125 4.171875 0.0820312 4.015625 0.4375 L 3.21875 2.234375 L 2.0625 2.234375 L 2.625 -0.09375 C 2.457031 -0.195312 2.328125 -0.332031 2.234375 -0.5 C 2.148438 -0.675781 2.109375 -0.867188 2.109375 -1.078125 C 2.109375 -1.410156 2.21875 -1.691406 2.4375 -1.921875 C 2.664062 -2.148438 2.953125 -2.265625 3.296875 -2.265625 Z M 3.296875 -2.265625 "/></g></g></g><g fill="#ffffff" fill-opacity="1"><g transform="translate(132.154517, 190.385072)"><g/></g></g><g fill="#ffffff" fill-opacity="1"><g transform="translate(138.733739, 190.385072)"><g><path d="M 1.625 -5.078125 L 1.421875 -8.140625 L 3.0625 -8.140625 L 2.859375 -5.078125 Z M 3.71875 -5.078125 L 3.515625 -8.140625 L 5.171875 -8.140625 L 4.953125 -5.078125 Z M 3.71875 -5.078125 "/></g></g></g><path stroke-linecap="round" transform="matrix(0.74818, 0, 0, 0.74818, 130.669874, 112.994511)" fill="none" stroke-linejoin="miter" d="M 2.00232 2.001761 L 2.00232 72.438353 " stroke="#acb8c0" stroke-width="4" stroke-opacity="1" stroke-miterlimit="4"/><path stroke-linecap="round" transform="matrix(0.74818, 0, 0, 0.74818, 130.669874, 112.994511)" fill="none" stroke-linejoin="round" d="M 8.001256 65.436984 L 2.00232 73.440787 L -4.001837 65.436984 " stroke="#acb8c0" stroke-width="4" stroke-opacity="1" stroke-miterlimit="4"/><g clip-path="url(#ae2d0de8d1)"><g clip-path="url(#7ed12a4c16)"><path fill="#64a65f" d="M 174.863281 169.4375 L 259.339844 169.4375 L 259.339844 204.375 L 174.863281 204.375 Z M 174.863281 169.4375 " fill-opacity="1" fill-rule="nonzero"/></g></g><g fill="#ffffff" fill-opacity="1"><g transform="translate(206.345284, 189.636892)"><g><path d="M 4.71875 -6.359375 L 4.71875 -1.296875 L 6.34375 -1.296875 L 6.34375 0 L 1.03125 0 L 1.03125 -1.296875 L 2.828125 -1.296875 L 2.828125 -5.0625 L 1.09375 -5.0625 L 1.09375 -6.359375 Z M 3.578125 -9.6875 C 3.898438 -9.6875 4.164062 -9.582031 4.375 -9.375 C 4.582031 -9.175781 4.6875 -8.925781 4.6875 -8.625 C 4.6875 -8.3125 4.582031 -8.050781 4.375 -7.84375 C 4.164062 -7.644531 3.898438 -7.546875 3.578125 -7.546875 C 3.242188 -7.546875 2.972656 -7.644531 2.765625 -7.84375 C 2.554688 -8.050781 2.453125 -8.3125 2.453125 -8.625 C 2.453125 -8.925781 2.554688 -9.175781 2.765625 -9.375 C 2.972656 -9.582031 3.242188 -9.6875 3.578125 -9.6875 Z M 3.578125 -9.6875 "/></g></g></g><g fill="#ffffff" fill-opacity="1"><g transform="translate(213.520872, 189.636892)"><g><path d="M 0.84375 0 L 0.84375 -6.359375 L 2.484375 -6.359375 L 2.625 -5.625 C 2.90625 -5.9375 3.203125 -6.171875 3.515625 -6.328125 C 3.828125 -6.484375 4.1875 -6.5625 4.59375 -6.5625 C 5.132812 -6.5625 5.5625 -6.394531 5.875 -6.0625 C 6.1875 -5.738281 6.34375 -5.273438 6.34375 -4.671875 L 6.34375 0 L 4.453125 0 L 4.453125 -4.125 C 4.453125 -4.382812 4.429688 -4.585938 4.390625 -4.734375 C 4.359375 -4.890625 4.296875 -5 4.203125 -5.0625 C 4.117188 -5.132812 4 -5.171875 3.84375 -5.171875 C 3.707031 -5.171875 3.578125 -5.140625 3.453125 -5.078125 C 3.328125 -5.023438 3.203125 -4.941406 3.078125 -4.828125 C 2.960938 -4.722656 2.847656 -4.597656 2.734375 -4.453125 L 2.734375 0 Z M 0.84375 0 "/></g></g></g><g fill="#ffffff" fill-opacity="1"><g transform="translate(220.696459, 189.636892)"><g><path d="M 6.5625 -0.375 C 6.3125 -0.207031 6.007812 -0.0703125 5.65625 0.03125 C 5.3125 0.144531 4.914062 0.203125 4.46875 0.203125 C 3.644531 0.203125 3.03125 -0.0078125 2.625 -0.4375 C 2.21875 -0.863281 2.015625 -1.441406 2.015625 -2.171875 L 2.015625 -5.046875 L 0.6875 -5.046875 L 0.6875 -6.359375 L 2.015625 -6.359375 L 2.015625 -7.734375 L 3.90625 -7.953125 L 3.90625 -6.359375 L 5.953125 -6.359375 L 5.78125 -5.046875 L 3.90625 -5.046875 L 3.90625 -2.171875 C 3.90625 -1.847656 3.976562 -1.617188 4.125 -1.484375 C 4.269531 -1.347656 4.5 -1.28125 4.8125 -1.28125 C 5.039062 -1.28125 5.242188 -1.304688 5.421875 -1.359375 C 5.609375 -1.421875 5.78125 -1.492188 5.9375 -1.578125 Z M 6.5625 -0.375 "/></g></g></g><g clip-path="url(#7f86fe8dbf)"><g clip-path="url(#67d2678375)"><path fill="#8c52ff" d="M 77.253906 0 L 187.128906 0 L 187.128906 34.136719 L 77.253906 34.136719 Z M 77.253906 0 " fill-opacity="1" fill-rule="nonzero"/></g></g><g fill="#ffffff" fill-opacity="1"><g transform="translate(113.015598, 21.697207)"><g><path d="M 7.375 -8.75 C 7.78125 -8.75 8.113281 -8.660156 8.375 -8.484375 C 8.632812 -8.316406 8.828125 -8.050781 8.953125 -7.6875 C 9.085938 -7.320312 9.15625 -6.847656 9.15625 -6.265625 L 9.15625 0 L 6.984375 0 L 6.984375 -5.984375 C 6.984375 -6.273438 6.953125 -6.484375 6.890625 -6.609375 C 6.835938 -6.734375 6.726562 -6.796875 6.5625 -6.796875 C 6.425781 -6.796875 6.285156 -6.753906 6.140625 -6.671875 C 6.003906 -6.597656 5.851562 -6.457031 5.6875 -6.25 L 5.6875 0 L 3.921875 0 L 3.921875 -5.984375 C 3.921875 -6.273438 3.890625 -6.484375 3.828125 -6.609375 C 3.773438 -6.734375 3.664062 -6.796875 3.5 -6.796875 C 3.363281 -6.796875 3.222656 -6.753906 3.078125 -6.671875 C 2.941406 -6.597656 2.785156 -6.457031 2.609375 -6.25 L 2.609375 0 L 0.421875 0 L 0.421875 -8.46875 L 2.265625 -8.46875 L 2.4375 -7.65625 C 2.707031 -8.007812 2.976562 -8.28125 3.25 -8.46875 C 3.519531 -8.65625 3.84375 -8.75 4.21875 -8.75 C 4.53125 -8.75 4.800781 -8.664062 5.03125 -8.5 C 5.257812 -8.34375 5.421875 -8.09375 5.515625 -7.75 C 5.765625 -8.039062 6.039062 -8.28125 6.34375 -8.46875 C 6.65625 -8.65625 7 -8.75 7.375 -8.75 Z M 7.375 -8.75 "/></g></g></g><g fill="#ffffff" fill-opacity="1"><g transform="translate(122.58989, 21.697207)"><g><path d="M 8.25 -2.4375 C 8.25 -2.125 8.289062 -1.894531 8.375 -1.75 C 8.46875 -1.601562 8.613281 -1.492188 8.8125 -1.421875 L 8.28125 0.234375 C 7.78125 0.191406 7.359375 0.0859375 7.015625 -0.078125 C 6.679688 -0.253906 6.414062 -0.519531 6.21875 -0.875 C 5.894531 -0.488281 5.476562 -0.203125 4.96875 -0.015625 C 4.46875 0.171875 3.953125 0.265625 3.421875 0.265625 C 2.546875 0.265625 1.847656 0.0195312 1.328125 -0.46875 C 0.816406 -0.96875 0.5625 -1.609375 0.5625 -2.390625 C 0.5625 -3.304688 0.921875 -4.015625 1.640625 -4.515625 C 2.359375 -5.015625 3.375 -5.265625 4.6875 -5.265625 L 5.828125 -5.265625 L 5.828125 -5.59375 C 5.828125 -6.03125 5.679688 -6.351562 5.390625 -6.5625 C 5.109375 -6.78125 4.691406 -6.890625 4.140625 -6.890625 C 3.867188 -6.890625 3.519531 -6.847656 3.09375 -6.765625 C 2.675781 -6.691406 2.253906 -6.582031 1.828125 -6.4375 L 1.25 -8.125 C 1.789062 -8.332031 2.359375 -8.488281 2.953125 -8.59375 C 3.546875 -8.695312 4.078125 -8.75 4.546875 -8.75 C 5.804688 -8.75 6.738281 -8.488281 7.34375 -7.96875 C 7.945312 -7.457031 8.25 -6.722656 8.25 -5.765625 Z M 4.296875 -1.53125 C 4.566406 -1.53125 4.847656 -1.609375 5.140625 -1.765625 C 5.441406 -1.929688 5.671875 -2.164062 5.828125 -2.46875 L 5.828125 -3.84375 L 5.203125 -3.84375 C 4.492188 -3.84375 3.972656 -3.734375 3.640625 -3.515625 C 3.316406 -3.296875 3.15625 -2.976562 3.15625 -2.5625 C 3.15625 -2.238281 3.253906 -1.984375 3.453125 -1.796875 C 3.648438 -1.617188 3.929688 -1.53125 4.296875 -1.53125 Z M 4.296875 -1.53125 "/></g></g></g><g fill="#ffffff" fill-opacity="1"><g transform="translate(132.164181, 21.697207)"><g><path d="M 1.109375 0 L 1.109375 -8.46875 L 3.3125 -8.46875 L 3.5 -7.484375 C 3.875 -7.910156 4.269531 -8.226562 4.6875 -8.4375 C 5.113281 -8.644531 5.59375 -8.75 6.125 -8.75 C 6.84375 -8.75 7.410156 -8.523438 7.828125 -8.078125 C 8.242188 -7.640625 8.453125 -7.019531 8.453125 -6.21875 L 8.453125 0 L 5.9375 0 L 5.9375 -5.5 C 5.9375 -5.84375 5.910156 -6.113281 5.859375 -6.3125 C 5.816406 -6.519531 5.734375 -6.664062 5.609375 -6.75 C 5.492188 -6.84375 5.332031 -6.890625 5.125 -6.890625 C 4.945312 -6.890625 4.773438 -6.847656 4.609375 -6.765625 C 4.441406 -6.691406 4.273438 -6.582031 4.109375 -6.4375 C 3.953125 -6.300781 3.796875 -6.128906 3.640625 -5.921875 L 3.640625 0 Z M 1.109375 0 "/></g></g></g><g fill="#ffffff" fill-opacity="1"><g transform="translate(141.738473, 21.697207)"><g><path d="M 9.125 -8.46875 L 6.296875 0 C 6.046875 0.75 5.710938 1.375 5.296875 1.875 C 4.890625 2.382812 4.378906 2.78125 3.765625 3.0625 C 3.148438 3.34375 2.414062 3.503906 1.5625 3.546875 L 1.265625 1.765625 C 1.828125 1.703125 2.28125 1.597656 2.625 1.453125 C 2.96875 1.316406 3.242188 1.128906 3.453125 0.890625 C 3.660156 0.660156 3.84375 0.363281 4 0 L 3.140625 0 L 0.453125 -8.46875 L 3.109375 -8.46875 L 4.75 -1.609375 L 6.546875 -8.46875 Z M 9.125 -8.46875 "/></g></g></g><path stroke-linecap="round" transform="matrix(0.74818, 0, 0, 0.74818, 187.077513, 94.430306)" fill="none" stroke-linejoin="miter" d="M 2.000463 1.998818 L 21.078019 1.998818 C 26.137174 1.998818 30.987489 4.008906 34.563878 7.585295 C 38.140267 11.166905 40.150354 16.01722 40.150354 21.076374 L 40.150354 97.250853 " stroke="#acb8c0" stroke-width="4" stroke-opacity="1" stroke-miterlimit="4"/><path stroke-linecap="round" transform="matrix(0.74818, 0, 0, 0.74818, 187.077513, 94.430306)" fill="none" stroke-linejoin="round" d="M 46.154511 90.249484 L 40.150354 98.253286 L 34.151418 90.249484 " stroke="#acb8c0" stroke-width="4" stroke-opacity="1" stroke-miterlimit="4"/><path stroke-linecap="round" transform="matrix(0.74818, 0, 0, 0.74818, 130.669874, 34.135689)" fill="none" stroke-linejoin="miter" d="M 2.00232 2.001022 L 2.00232 56.774596 " stroke="#acb8c0" stroke-width="4" stroke-opacity="1" stroke-miterlimit="4"/><path stroke-linecap="round" transform="matrix(0.74818, 0, 0, 0.74818, 130.669874, 34.135689)" fill="none" stroke-linejoin="round" d="M 8.001256 49.778448 L 2.00232 57.77703 L -4.001837 49.778448 " stroke="#acb8c0" stroke-width="4" stroke-opacity="1" stroke-miterlimit="4"/><g clip-path="url(#c825864815)"><g clip-path="url(#139f929b5e)"><path fill="#577355" d="M 202.59375 58.851562 L 287.070312 58.851562 L 287.070312 93.789062 L 202.59375 93.789062 Z M 202.59375 58.851562 " fill-opacity="1" fill-rule="nonzero"/></g></g><g fill="#ffffff" fill-opacity="1"><g transform="translate(226.898436, 79.051285)"><g><path d="M 1.765625 -5.53125 L 1.546875 -8.875 L 3.328125 -8.875 L 3.109375 -5.53125 Z M 4.0625 -5.53125 L 3.84375 -8.875 L 5.640625 -8.875 L 5.40625 -5.53125 Z M 4.0625 -5.53125 "/></g></g></g><g fill="#ffffff" fill-opacity="1"><g transform="translate(234.074023, 79.051285)"><g/></g></g><g fill="#ffffff" fill-opacity="1"><g transform="translate(241.24961, 79.051285)"><g><path d="M 4.46875 -9.6875 L 4.46875 1.25 L 2.703125 1.25 L 2.703125 -9.6875 Z M 4.46875 -9.6875 "/></g></g></g><g fill="#ffffff" fill-opacity="1"><g transform="translate(248.425197, 79.051285)"><g/></g></g><g fill="#ffffff" fill-opacity="1"><g transform="translate(255.600785, 79.051285)"><g><path d="M 1.765625 -5.53125 L 1.546875 -8.875 L 3.328125 -8.875 L 3.109375 -5.53125 Z M 4.0625 -5.53125 L 3.84375 -8.875 L 5.640625 -8.875 L 5.40625 -5.53125 Z M 4.0625 -5.53125 "/></g></g></g><path stroke-linecap="round" transform="matrix(0.74818, 0, 0, 0.74818, 187.077513, 15.571485)" fill="none" stroke-linejoin="miter" d="M 2.000463 1.998078 L 54.215745 1.998078 C 66.918452 1.998078 77.219497 12.299123 77.219497 25.00183 L 77.219497 54.845101 " stroke="#acb8c0" stroke-width="4" stroke-opacity="1" stroke-miterlimit="4"/><path stroke-linecap="round" transform="matrix(0.74818, 0, 0, 0.74818, 187.077513, 15.571485)" fill="none" stroke-linejoin="round" d="M 83.218433 47.843732 L 77.219497 55.847534 L 71.21534 47.843732 " stroke="#acb8c0" stroke-width="4" stroke-opacity="1" stroke-miterlimit="4"/><g fill="#c1ff72" fill-opacity="1"><g transform="translate(16.924963, 156.074792)"><g><path d="M 4.59375 -6.1875 L 4.59375 -1.25 L 6.15625 -1.25 L 6.15625 0 L 1 0 L 1 -1.25 L 2.75 -1.25 L 2.75 -4.921875 L 1.0625 -4.921875 L 1.0625 -6.1875 Z M 3.484375 -9.421875 C 3.796875 -9.421875 4.050781 -9.320312 4.25 -9.125 C 4.457031 -8.925781 4.5625 -8.675781 4.5625 -8.375 C 4.5625 -8.082031 4.457031 -7.835938 4.25 -7.640625 C 4.050781 -7.441406 3.796875 -7.34375 3.484375 -7.34375 C 3.160156 -7.34375 2.894531 -7.441406 2.6875 -7.640625 C 2.488281 -7.835938 2.390625 -8.082031 2.390625 -8.375 C 2.390625 -8.675781 2.488281 -8.925781 2.6875 -9.125 C 2.894531 -9.320312 3.160156 -9.421875 3.484375 -9.421875 Z M 3.484375 -9.421875 "/></g></g></g><g fill="#c1ff72" fill-opacity="1"><g transform="translate(23.90332, 156.074792)"><g><path d="M 6.375 -0.359375 C 6.132812 -0.203125 5.84375 -0.0703125 5.5 0.03125 C 5.164062 0.144531 4.785156 0.203125 4.359375 0.203125 C 3.546875 0.203125 2.941406 -0.00390625 2.546875 -0.421875 C 2.160156 -0.835938 1.96875 -1.398438 1.96875 -2.109375 L 1.96875 -4.90625 L 0.671875 -4.90625 L 0.671875 -6.1875 L 1.96875 -6.1875 L 1.96875 -7.515625 L 3.8125 -7.734375 L 3.8125 -6.1875 L 5.796875 -6.1875 L 5.609375 -4.90625 L 3.8125 -4.90625 L 3.8125 -2.109375 C 3.8125 -1.796875 3.878906 -1.570312 4.015625 -1.4375 C 4.148438 -1.3125 4.375 -1.25 4.6875 -1.25 C 4.90625 -1.25 5.101562 -1.273438 5.28125 -1.328125 C 5.457031 -1.378906 5.617188 -1.445312 5.765625 -1.53125 Z M 6.375 -0.359375 "/></g></g></g><g fill="#c1ff72" fill-opacity="1"><g transform="translate(30.881677, 156.074792)"><g><path d="M 2.40625 -2.5625 C 2.445312 -2.21875 2.535156 -1.941406 2.671875 -1.734375 C 2.804688 -1.523438 2.976562 -1.375 3.1875 -1.28125 C 3.394531 -1.1875 3.628906 -1.140625 3.890625 -1.140625 C 4.171875 -1.140625 4.441406 -1.1875 4.703125 -1.28125 C 4.972656 -1.375 5.234375 -1.5 5.484375 -1.65625 L 6.21875 -0.65625 C 5.925781 -0.40625 5.570312 -0.195312 5.15625 -0.03125 C 4.75 0.125 4.28125 0.203125 3.75 0.203125 C 3.039062 0.203125 2.445312 0.0625 1.96875 -0.21875 C 1.488281 -0.5 1.128906 -0.882812 0.890625 -1.375 C 0.648438 -1.875 0.53125 -2.441406 0.53125 -3.078125 C 0.53125 -3.691406 0.644531 -4.25 0.875 -4.75 C 1.113281 -5.25 1.457031 -5.644531 1.90625 -5.9375 C 2.351562 -6.238281 2.898438 -6.390625 3.546875 -6.390625 C 4.140625 -6.390625 4.648438 -6.257812 5.078125 -6 C 5.515625 -5.75 5.851562 -5.382812 6.09375 -4.90625 C 6.332031 -4.4375 6.453125 -3.875 6.453125 -3.21875 C 6.453125 -3.113281 6.445312 -3 6.4375 -2.875 C 6.4375 -2.75 6.425781 -2.644531 6.40625 -2.5625 Z M 3.546875 -5.15625 C 3.222656 -5.15625 2.957031 -5.035156 2.75 -4.796875 C 2.550781 -4.554688 2.429688 -4.175781 2.390625 -3.65625 L 4.65625 -3.65625 C 4.65625 -4.113281 4.566406 -4.476562 4.390625 -4.75 C 4.222656 -5.019531 3.941406 -5.15625 3.546875 -5.15625 Z M 3.546875 -5.15625 "/></g></g></g><g fill="#c1ff72" fill-opacity="1"><g transform="translate(37.860033, 156.074792)"><g><path d="M 5.390625 -6.390625 C 5.679688 -6.390625 5.921875 -6.328125 6.109375 -6.203125 C 6.296875 -6.078125 6.4375 -5.878906 6.53125 -5.609375 C 6.625 -5.347656 6.671875 -5.003906 6.671875 -4.578125 L 6.671875 0 L 5.09375 0 L 5.09375 -4.359375 C 5.09375 -4.578125 5.070312 -4.726562 5.03125 -4.8125 C 4.988281 -4.90625 4.910156 -4.953125 4.796875 -4.953125 C 4.691406 -4.953125 4.585938 -4.925781 4.484375 -4.875 C 4.390625 -4.820312 4.28125 -4.71875 4.15625 -4.5625 L 4.15625 0 L 2.859375 0 L 2.859375 -4.359375 C 2.859375 -4.578125 2.835938 -4.726562 2.796875 -4.8125 C 2.753906 -4.90625 2.671875 -4.953125 2.546875 -4.953125 C 2.453125 -4.953125 2.351562 -4.925781 2.25 -4.875 C 2.144531 -4.820312 2.03125 -4.71875 1.90625 -4.5625 L 1.90625 0 L 0.3125 0 L 0.3125 -6.1875 L 1.65625 -6.1875 L 1.78125 -5.578125 C 1.976562 -5.847656 2.175781 -6.050781 2.375 -6.1875 C 2.570312 -6.320312 2.804688 -6.390625 3.078125 -6.390625 C 3.304688 -6.390625 3.503906 -6.328125 3.671875 -6.203125 C 3.835938 -6.085938 3.953125 -5.90625 4.015625 -5.65625 C 4.203125 -5.875 4.40625 -6.050781 4.625 -6.1875 C 4.851562 -6.320312 5.109375 -6.390625 5.390625 -6.390625 Z M 5.390625 -6.390625 "/></g></g></g><g fill="#c1ff72" fill-opacity="1"><g transform="translate(44.83839, 156.074792)"><g><path d="M 2.265625 -1.03125 C 2.265625 -1.363281 2.382812 -1.644531 2.625 -1.875 C 2.863281 -2.113281 3.148438 -2.234375 3.484375 -2.234375 C 3.828125 -2.234375 4.113281 -2.113281 4.34375 -1.875 C 4.582031 -1.644531 4.703125 -1.363281 4.703125 -1.03125 C 4.703125 -0.695312 4.582031 -0.40625 4.34375 -0.15625 C 4.113281 0.0820312 3.828125 0.203125 3.484375 0.203125 C 3.148438 0.203125 2.863281 0.0820312 2.625 -0.15625 C 2.382812 -0.40625 2.265625 -0.695312 2.265625 -1.03125 Z M 2.265625 -5.046875 C 2.265625 -5.378906 2.382812 -5.664062 2.625 -5.90625 C 2.863281 -6.15625 3.148438 -6.28125 3.484375 -6.28125 C 3.828125 -6.28125 4.113281 -6.15625 4.34375 -5.90625 C 4.582031 -5.664062 4.703125 -5.378906 4.703125 -5.046875 C 4.703125 -4.722656 4.582031 -4.4375 4.34375 -4.1875 C 4.113281 -3.945312 3.828125 -3.828125 3.484375 -3.828125 C 3.148438 -3.828125 2.863281 -3.945312 2.625 -4.1875 C 2.382812 -4.4375 2.265625 -4.722656 2.265625 -5.046875 Z M 2.265625 -5.046875 "/></g></g></g><g fill="#c1ff72" fill-opacity="1"><g transform="translate(51.816747, 156.074792)"><g><path d="M 3.484375 -8.265625 C 4.453125 -8.265625 5.179688 -7.894531 5.671875 -7.15625 C 6.160156 -6.414062 6.40625 -5.378906 6.40625 -4.046875 C 6.40625 -2.710938 6.160156 -1.671875 5.671875 -0.921875 C 5.179688 -0.171875 4.453125 0.203125 3.484375 0.203125 C 2.515625 0.203125 1.785156 -0.171875 1.296875 -0.921875 C 0.816406 -1.671875 0.578125 -2.710938 0.578125 -4.046875 C 0.578125 -5.378906 0.816406 -6.414062 1.296875 -7.15625 C 1.785156 -7.894531 2.515625 -8.265625 3.484375 -8.265625 Z M 3.484375 -6.9375 C 3.078125 -6.9375 2.78125 -6.710938 2.59375 -6.265625 C 2.40625 -5.828125 2.3125 -5.085938 2.3125 -4.046875 C 2.3125 -3.242188 2.34375 -2.628906 2.40625 -2.203125 C 2.476562 -1.785156 2.597656 -1.5 2.765625 -1.34375 C 2.941406 -1.195312 3.179688 -1.125 3.484375 -1.125 C 3.765625 -1.125 3.988281 -1.21875 4.15625 -1.40625 C 4.332031 -1.59375 4.460938 -1.898438 4.546875 -2.328125 C 4.628906 -2.753906 4.671875 -3.328125 4.671875 -4.046875 C 4.671875 -4.835938 4.632812 -5.441406 4.5625 -5.859375 C 4.488281 -6.273438 4.367188 -6.554688 4.203125 -6.703125 C 4.035156 -6.859375 3.796875 -6.9375 3.484375 -6.9375 Z M 4.40625 -6.6875 L 4.875 -5.671875 L 2.71875 -1.234375 L 2.1875 -2.046875 Z M 4.40625 -6.6875 "/></g></g></g><g fill="#c1ff72" fill-opacity="1"><g transform="translate(58.795103, 156.074792)"><g><path d="M 3.484375 -8.265625 C 4.453125 -8.265625 5.179688 -7.894531 5.671875 -7.15625 C 6.160156 -6.414062 6.40625 -5.378906 6.40625 -4.046875 C 6.40625 -2.710938 6.160156 -1.671875 5.671875 -0.921875 C 5.179688 -0.171875 4.453125 0.203125 3.484375 0.203125 C 2.515625 0.203125 1.785156 -0.171875 1.296875 -0.921875 C 0.816406 -1.671875 0.578125 -2.710938 0.578125 -4.046875 C 0.578125 -5.378906 0.816406 -6.414062 1.296875 -7.15625 C 1.785156 -7.894531 2.515625 -8.265625 3.484375 -8.265625 Z M 3.484375 -6.9375 C 3.078125 -6.9375 2.78125 -6.710938 2.59375 -6.265625 C 2.40625 -5.828125 2.3125 -5.085938 2.3125 -4.046875 C 2.3125 -3.242188 2.34375 -2.628906 2.40625 -2.203125 C 2.476562 -1.785156 2.597656 -1.5 2.765625 -1.34375 C 2.941406 -1.195312 3.179688 -1.125 3.484375 -1.125 C 3.765625 -1.125 3.988281 -1.21875 4.15625 -1.40625 C 4.332031 -1.59375 4.460938 -1.898438 4.546875 -2.328125 C 4.628906 -2.753906 4.671875 -3.328125 4.671875 -4.046875 C 4.671875 -4.835938 4.632812 -5.441406 4.5625 -5.859375 C 4.488281 -6.273438 4.367188 -6.554688 4.203125 -6.703125 C 4.035156 -6.859375 3.796875 -6.9375 3.484375 -6.9375 Z M 4.40625 -6.6875 L 4.875 -5.671875 L 2.71875 -1.234375 L 2.1875 -2.046875 Z M 4.40625 -6.6875 "/></g></g></g><g fill="#c1ff72" fill-opacity="1"><g transform="translate(105.450992, 156.074792)"><g><path d="M 4.59375 -6.1875 L 4.59375 -1.25 L 6.15625 -1.25 L 6.15625 0 L 1 0 L 1 -1.25 L 2.75 -1.25 L 2.75 -4.921875 L 1.0625 -4.921875 L 1.0625 -6.1875 Z M 3.484375 -9.421875 C 3.796875 -9.421875 4.050781 -9.320312 4.25 -9.125 C 4.457031 -8.925781 4.5625 -8.675781 4.5625 -8.375 C 4.5625 -8.082031 4.457031 -7.835938 4.25 -7.640625 C 4.050781 -7.441406 3.796875 -7.34375 3.484375 -7.34375 C 3.160156 -7.34375 2.894531 -7.441406 2.6875 -7.640625 C 2.488281 -7.835938 2.390625 -8.082031 2.390625 -8.375 C 2.390625 -8.675781 2.488281 -8.925781 2.6875 -9.125 C 2.894531 -9.320312 3.160156 -9.421875 3.484375 -9.421875 Z M 3.484375 -9.421875 "/></g></g></g><g fill="#c1ff72" fill-opacity="1"><g transform="translate(112.429349, 156.074792)"><g><path d="M 6.375 -0.359375 C 6.132812 -0.203125 5.84375 -0.0703125 5.5 0.03125 C 5.164062 0.144531 4.785156 0.203125 4.359375 0.203125 C 3.546875 0.203125 2.941406 -0.00390625 2.546875 -0.421875 C 2.160156 -0.835938 1.96875 -1.398438 1.96875 -2.109375 L 1.96875 -4.90625 L 0.671875 -4.90625 L 0.671875 -6.1875 L 1.96875 -6.1875 L 1.96875 -7.515625 L 3.8125 -7.734375 L 3.8125 -6.1875 L 5.796875 -6.1875 L 5.609375 -4.90625 L 3.8125 -4.90625 L 3.8125 -2.109375 C 3.8125 -1.796875 3.878906 -1.570312 4.015625 -1.4375 C 4.148438 -1.3125 4.375 -1.25 4.6875 -1.25 C 4.90625 -1.25 5.101562 -1.273438 5.28125 -1.328125 C 5.457031 -1.378906 5.617188 -1.445312 5.765625 -1.53125 Z M 6.375 -0.359375 "/></g></g></g><g fill="#c1ff72" fill-opacity="1"><g transform="translate(119.407706, 156.074792)"><g><path d="M 2.40625 -2.5625 C 2.445312 -2.21875 2.535156 -1.941406 2.671875 -1.734375 C 2.804688 -1.523438 2.976562 -1.375 3.1875 -1.28125 C 3.394531 -1.1875 3.628906 -1.140625 3.890625 -1.140625 C 4.171875 -1.140625 4.441406 -1.1875 4.703125 -1.28125 C 4.972656 -1.375 5.234375 -1.5 5.484375 -1.65625 L 6.21875 -0.65625 C 5.925781 -0.40625 5.570312 -0.195312 5.15625 -0.03125 C 4.75 0.125 4.28125 0.203125 3.75 0.203125 C 3.039062 0.203125 2.445312 0.0625 1.96875 -0.21875 C 1.488281 -0.5 1.128906 -0.882812 0.890625 -1.375 C 0.648438 -1.875 0.53125 -2.441406 0.53125 -3.078125 C 0.53125 -3.691406 0.644531 -4.25 0.875 -4.75 C 1.113281 -5.25 1.457031 -5.644531 1.90625 -5.9375 C 2.351562 -6.238281 2.898438 -6.390625 3.546875 -6.390625 C 4.140625 -6.390625 4.648438 -6.257812 5.078125 -6 C 5.515625 -5.75 5.851562 -5.382812 6.09375 -4.90625 C 6.332031 -4.4375 6.453125 -3.875 6.453125 -3.21875 C 6.453125 -3.113281 6.445312 -3 6.4375 -2.875 C 6.4375 -2.75 6.425781 -2.644531 6.40625 -2.5625 Z M 3.546875 -5.15625 C 3.222656 -5.15625 2.957031 -5.035156 2.75 -4.796875 C 2.550781 -4.554688 2.429688 -4.175781 2.390625 -3.65625 L 4.65625 -3.65625 C 4.65625 -4.113281 4.566406 -4.476562 4.390625 -4.75 C 4.222656 -5.019531 3.941406 -5.15625 3.546875 -5.15625 Z M 3.546875 -5.15625 "/></g></g></g><g fill="#c1ff72" fill-opacity="1"><g transform="translate(126.386062, 156.074792)"><g><path d="M 5.390625 -6.390625 C 5.679688 -6.390625 5.921875 -6.328125 6.109375 -6.203125 C 6.296875 -6.078125 6.4375 -5.878906 6.53125 -5.609375 C 6.625 -5.347656 6.671875 -5.003906 6.671875 -4.578125 L 6.671875 0 L 5.09375 0 L 5.09375 -4.359375 C 5.09375 -4.578125 5.070312 -4.726562 5.03125 -4.8125 C 4.988281 -4.90625 4.910156 -4.953125 4.796875 -4.953125 C 4.691406 -4.953125 4.585938 -4.925781 4.484375 -4.875 C 4.390625 -4.820312 4.28125 -4.71875 4.15625 -4.5625 L 4.15625 0 L 2.859375 0 L 2.859375 -4.359375 C 2.859375 -4.578125 2.835938 -4.726562 2.796875 -4.8125 C 2.753906 -4.90625 2.671875 -4.953125 2.546875 -4.953125 C 2.453125 -4.953125 2.351562 -4.925781 2.25 -4.875 C 2.144531 -4.820312 2.03125 -4.71875 1.90625 -4.5625 L 1.90625 0 L 0.3125 0 L 0.3125 -6.1875 L 1.65625 -6.1875 L 1.78125 -5.578125 C 1.976562 -5.847656 2.175781 -6.050781 2.375 -6.1875 C 2.570312 -6.320312 2.804688 -6.390625 3.078125 -6.390625 C 3.304688 -6.390625 3.503906 -6.328125 3.671875 -6.203125 C 3.835938 -6.085938 3.953125 -5.90625 4.015625 -5.65625 C 4.203125 -5.875 4.40625 -6.050781 4.625 -6.1875 C 4.851562 -6.320312 5.109375 -6.390625 5.390625 -6.390625 Z M 5.390625 -6.390625 "/></g></g></g><g fill="#c1ff72" fill-opacity="1"><g transform="translate(133.364419, 156.074792)"><g><path d="M 2.265625 -1.03125 C 2.265625 -1.363281 2.382812 -1.644531 2.625 -1.875 C 2.863281 -2.113281 3.148438 -2.234375 3.484375 -2.234375 C 3.828125 -2.234375 4.113281 -2.113281 4.34375 -1.875 C 4.582031 -1.644531 4.703125 -1.363281 4.703125 -1.03125 C 4.703125 -0.695312 4.582031 -0.40625 4.34375 -0.15625 C 4.113281 0.0820312 3.828125 0.203125 3.484375 0.203125 C 3.148438 0.203125 2.863281 0.0820312 2.625 -0.15625 C 2.382812 -0.40625 2.265625 -0.695312 2.265625 -1.03125 Z M 2.265625 -5.046875 C 2.265625 -5.378906 2.382812 -5.664062 2.625 -5.90625 C 2.863281 -6.15625 3.148438 -6.28125 3.484375 -6.28125 C 3.828125 -6.28125 4.113281 -6.15625 4.34375 -5.90625 C 4.582031 -5.664062 4.703125 -5.378906 4.703125 -5.046875 C 4.703125 -4.722656 4.582031 -4.4375 4.34375 -4.1875 C 4.113281 -3.945312 3.828125 -3.828125 3.484375 -3.828125 C 3.148438 -3.828125 2.863281 -3.945312 2.625 -4.1875 C 2.382812 -4.4375 2.265625 -4.722656 2.265625 -5.046875 Z M 2.265625 -5.046875 "/></g></g></g><g fill="#c1ff72" fill-opacity="1"><g transform="translate(140.342775, 156.074792)"><g><path d="M 3.484375 -8.265625 C 4.453125 -8.265625 5.179688 -7.894531 5.671875 -7.15625 C 6.160156 -6.414062 6.40625 -5.378906 6.40625 -4.046875 C 6.40625 -2.710938 6.160156 -1.671875 5.671875 -0.921875 C 5.179688 -0.171875 4.453125 0.203125 3.484375 0.203125 C 2.515625 0.203125 1.785156 -0.171875 1.296875 -0.921875 C 0.816406 -1.671875 0.578125 -2.710938 0.578125 -4.046875 C 0.578125 -5.378906 0.816406 -6.414062 1.296875 -7.15625 C 1.785156 -7.894531 2.515625 -8.265625 3.484375 -8.265625 Z M 3.484375 -6.9375 C 3.078125 -6.9375 2.78125 -6.710938 2.59375 -6.265625 C 2.40625 -5.828125 2.3125 -5.085938 2.3125 -4.046875 C 2.3125 -3.242188 2.34375 -2.628906 2.40625 -2.203125 C 2.476562 -1.785156 2.597656 -1.5 2.765625 -1.34375 C 2.941406 -1.195312 3.179688 -1.125 3.484375 -1.125 C 3.765625 -1.125 3.988281 -1.21875 4.15625 -1.40625 C 4.332031 -1.59375 4.460938 -1.898438 4.546875 -2.328125 C 4.628906 -2.753906 4.671875 -3.328125 4.671875 -4.046875 C 4.671875 -4.835938 4.632812 -5.441406 4.5625 -5.859375 C 4.488281 -6.273438 4.367188 -6.554688 4.203125 -6.703125 C 4.035156 -6.859375 3.796875 -6.9375 3.484375 -6.9375 Z M 4.40625 -6.6875 L 4.875 -5.671875 L 2.71875 -1.234375 L 2.1875 -2.046875 Z M 4.40625 -6.6875 "/></g></g></g><g fill="#c1ff72" fill-opacity="1"><g transform="translate(147.321132, 156.074792)"><g><path d="M 4.90625 -8.0625 L 4.90625 -0.234375 L 3.109375 -0.234375 L 3.109375 -6.25 L 1.453125 -5.21875 L 0.671875 -6.484375 L 3.28125 -8.0625 Z M 6.40625 -1.390625 L 6.40625 0 L 1.171875 0 L 1.171875 -1.390625 Z M 6.40625 -1.390625 "/></g></g></g><g fill="#ffde59" fill-opacity="1"><g transform="translate(230.885262, 45.465294)"><g><path d="M 3.296875 -1.125 C 3.597656 -1.125 3.84375 -1.171875 4.03125 -1.265625 C 4.21875 -1.359375 4.3125 -1.503906 4.3125 -1.703125 C 4.3125 -1.828125 4.273438 -1.9375 4.203125 -2.03125 C 4.128906 -2.125 3.988281 -2.207031 3.78125 -2.28125 C 3.570312 -2.363281 3.265625 -2.460938 2.859375 -2.578125 C 2.472656 -2.679688 2.132812 -2.8125 1.84375 -2.96875 C 1.5625 -3.125 1.335938 -3.320312 1.171875 -3.5625 C 1.015625 -3.800781 0.9375 -4.101562 0.9375 -4.46875 C 0.9375 -4.84375 1.035156 -5.171875 1.234375 -5.453125 C 1.441406 -5.742188 1.742188 -5.972656 2.140625 -6.140625 C 2.546875 -6.304688 3.039062 -6.390625 3.625 -6.390625 C 4.175781 -6.390625 4.65625 -6.316406 5.0625 -6.171875 C 5.46875 -6.023438 5.820312 -5.847656 6.125 -5.640625 L 5.390625 -4.546875 C 5.128906 -4.710938 4.851562 -4.84375 4.5625 -4.9375 C 4.269531 -5.03125 3.972656 -5.078125 3.671875 -5.078125 C 3.367188 -5.078125 3.144531 -5.035156 3 -4.953125 C 2.851562 -4.878906 2.78125 -4.757812 2.78125 -4.59375 C 2.78125 -4.488281 2.816406 -4.398438 2.890625 -4.328125 C 2.972656 -4.253906 3.117188 -4.175781 3.328125 -4.09375 C 3.535156 -4.007812 3.84375 -3.910156 4.25 -3.796875 C 4.644531 -3.679688 4.988281 -3.550781 5.28125 -3.40625 C 5.582031 -3.257812 5.816406 -3.0625 5.984375 -2.8125 C 6.148438 -2.570312 6.234375 -2.25 6.234375 -1.84375 C 6.234375 -1.394531 6.097656 -1.015625 5.828125 -0.703125 C 5.554688 -0.398438 5.195312 -0.171875 4.75 -0.015625 C 4.3125 0.128906 3.832031 0.203125 3.3125 0.203125 C 2.707031 0.203125 2.175781 0.117188 1.71875 -0.046875 C 1.257812 -0.222656 0.867188 -0.453125 0.546875 -0.734375 L 1.484375 -1.765625 C 1.722656 -1.578125 1.992188 -1.421875 2.296875 -1.296875 C 2.597656 -1.179688 2.929688 -1.125 3.296875 -1.125 Z M 3.296875 -1.125 "/></g></g></g><g fill="#ffde59" fill-opacity="1"><g transform="translate(237.863618, 45.465294)"><g><path d="M 2.40625 -2.5625 C 2.445312 -2.21875 2.535156 -1.941406 2.671875 -1.734375 C 2.804688 -1.523438 2.976562 -1.375 3.1875 -1.28125 C 3.394531 -1.1875 3.628906 -1.140625 3.890625 -1.140625 C 4.171875 -1.140625 4.441406 -1.1875 4.703125 -1.28125 C 4.972656 -1.375 5.234375 -1.5 5.484375 -1.65625 L 6.21875 -0.65625 C 5.925781 -0.40625 5.570312 -0.195312 5.15625 -0.03125 C 4.75 0.125 4.28125 0.203125 3.75 0.203125 C 3.039062 0.203125 2.445312 0.0625 1.96875 -0.21875 C 1.488281 -0.5 1.128906 -0.882812 0.890625 -1.375 C 0.648438 -1.875 0.53125 -2.441406 0.53125 -3.078125 C 0.53125 -3.691406 0.644531 -4.25 0.875 -4.75 C 1.113281 -5.25 1.457031 -5.644531 1.90625 -5.9375 C 2.351562 -6.238281 2.898438 -6.390625 3.546875 -6.390625 C 4.140625 -6.390625 4.648438 -6.257812 5.078125 -6 C 5.515625 -5.75 5.851562 -5.382812 6.09375 -4.90625 C 6.332031 -4.4375 6.453125 -3.875 6.453125 -3.21875 C 6.453125 -3.113281 6.445312 -3 6.4375 -2.875 C 6.4375 -2.75 6.425781 -2.644531 6.40625 -2.5625 Z M 3.546875 -5.15625 C 3.222656 -5.15625 2.957031 -5.035156 2.75 -4.796875 C 2.550781 -4.554688 2.429688 -4.175781 2.390625 -3.65625 L 4.65625 -3.65625 C 4.65625 -4.113281 4.566406 -4.476562 4.390625 -4.75 C 4.222656 -5.019531 3.941406 -5.15625 3.546875 -5.15625 Z M 3.546875 -5.15625 "/></g></g></g><g fill="#ffde59" fill-opacity="1"><g transform="translate(244.841975, 45.465294)"><g><path d="M 4.234375 -6.390625 C 4.773438 -6.390625 5.207031 -6.253906 5.53125 -5.984375 C 5.863281 -5.710938 6.109375 -5.332031 6.265625 -4.84375 C 6.421875 -4.351562 6.5 -3.773438 6.5 -3.109375 C 6.5 -2.472656 6.40625 -1.90625 6.21875 -1.40625 C 6.03125 -0.90625 5.757812 -0.507812 5.40625 -0.21875 C 5.050781 0.0625 4.625 0.203125 4.125 0.203125 C 3.519531 0.203125 3.03125 -0.015625 2.65625 -0.453125 L 2.65625 2.390625 L 0.8125 2.578125 L 0.8125 -6.1875 L 2.4375 -6.1875 L 2.53125 -5.484375 C 2.78125 -5.804688 3.050781 -6.035156 3.34375 -6.171875 C 3.644531 -6.316406 3.941406 -6.390625 4.234375 -6.390625 Z M 3.671875 -5.03125 C 3.453125 -5.03125 3.257812 -4.960938 3.09375 -4.828125 C 2.9375 -4.703125 2.789062 -4.53125 2.65625 -4.3125 L 2.65625 -1.703125 C 2.78125 -1.515625 2.910156 -1.375 3.046875 -1.28125 C 3.191406 -1.195312 3.363281 -1.15625 3.5625 -1.15625 C 3.882812 -1.15625 4.132812 -1.300781 4.3125 -1.59375 C 4.5 -1.894531 4.59375 -2.390625 4.59375 -3.078125 C 4.59375 -3.597656 4.554688 -4 4.484375 -4.28125 C 4.410156 -4.5625 4.300781 -4.753906 4.15625 -4.859375 C 4.019531 -4.972656 3.859375 -5.03125 3.671875 -5.03125 Z M 3.671875 -5.03125 "/></g></g></g><g fill="#ffde59" fill-opacity="1"><g transform="translate(251.820332, 45.465294)"><g><path d="M 0.875 0 L 0.875 -1.234375 L 1.6875 -1.234375 L 1.6875 -4.953125 L 0.875 -4.953125 L 0.875 -6.1875 L 3.09375 -6.1875 L 3.421875 -4.796875 C 3.648438 -5.328125 3.9375 -5.722656 4.28125 -5.984375 C 4.625 -6.242188 5.039062 -6.375 5.53125 -6.375 C 5.738281 -6.375 5.925781 -6.351562 6.09375 -6.3125 C 6.257812 -6.28125 6.410156 -6.238281 6.546875 -6.1875 L 6 -4.65625 C 5.882812 -4.6875 5.769531 -4.707031 5.65625 -4.71875 C 5.539062 -4.738281 5.414062 -4.75 5.28125 -4.75 C 4.875 -4.75 4.519531 -4.582031 4.21875 -4.25 C 3.914062 -3.925781 3.6875 -3.507812 3.53125 -3 L 3.53125 -1.234375 L 4.75 -1.234375 L 4.75 0 Z M 5.0625 -3.59375 L 5.0625 -5.40625 L 5.328125 -6.1875 L 6.546875 -6.1875 L 6.203125 -3.59375 Z M 5.0625 -3.59375 "/></g></g></g><g fill="#c1ff72" fill-opacity="1"><g transform="translate(189.248468, 156.074792)"><g><path d="M 4.59375 -6.1875 L 4.59375 -1.25 L 6.15625 -1.25 L 6.15625 0 L 1 0 L 1 -1.25 L 2.75 -1.25 L 2.75 -4.921875 L 1.0625 -4.921875 L 1.0625 -6.1875 Z M 3.484375 -9.421875 C 3.796875 -9.421875 4.050781 -9.320312 4.25 -9.125 C 4.457031 -8.925781 4.5625 -8.675781 4.5625 -8.375 C 4.5625 -8.082031 4.457031 -7.835938 4.25 -7.640625 C 4.050781 -7.441406 3.796875 -7.34375 3.484375 -7.34375 C 3.160156 -7.34375 2.894531 -7.441406 2.6875 -7.640625 C 2.488281 -7.835938 2.390625 -8.082031 2.390625 -8.375 C 2.390625 -8.675781 2.488281 -8.925781 2.6875 -9.125 C 2.894531 -9.320312 3.160156 -9.421875 3.484375 -9.421875 Z M 3.484375 -9.421875 "/></g></g></g><g fill="#c1ff72" fill-opacity="1"><g transform="translate(196.226824, 156.074792)"><g><path d="M 6.375 -0.359375 C 6.132812 -0.203125 5.84375 -0.0703125 5.5 0.03125 C 5.164062 0.144531 4.785156 0.203125 4.359375 0.203125 C 3.546875 0.203125 2.941406 -0.00390625 2.546875 -0.421875 C 2.160156 -0.835938 1.96875 -1.398438 1.96875 -2.109375 L 1.96875 -4.90625 L 0.671875 -4.90625 L 0.671875 -6.1875 L 1.96875 -6.1875 L 1.96875 -7.515625 L 3.8125 -7.734375 L 3.8125 -6.1875 L 5.796875 -6.1875 L 5.609375 -4.90625 L 3.8125 -4.90625 L 3.8125 -2.109375 C 3.8125 -1.796875 3.878906 -1.570312 4.015625 -1.4375 C 4.148438 -1.3125 4.375 -1.25 4.6875 -1.25 C 4.90625 -1.25 5.101562 -1.273438 5.28125 -1.328125 C 5.457031 -1.378906 5.617188 -1.445312 5.765625 -1.53125 Z M 6.375 -0.359375 "/></g></g></g><g fill="#c1ff72" fill-opacity="1"><g transform="translate(203.205181, 156.074792)"><g><path d="M 2.40625 -2.5625 C 2.445312 -2.21875 2.535156 -1.941406 2.671875 -1.734375 C 2.804688 -1.523438 2.976562 -1.375 3.1875 -1.28125 C 3.394531 -1.1875 3.628906 -1.140625 3.890625 -1.140625 C 4.171875 -1.140625 4.441406 -1.1875 4.703125 -1.28125 C 4.972656 -1.375 5.234375 -1.5 5.484375 -1.65625 L 6.21875 -0.65625 C 5.925781 -0.40625 5.570312 -0.195312 5.15625 -0.03125 C 4.75 0.125 4.28125 0.203125 3.75 0.203125 C 3.039062 0.203125 2.445312 0.0625 1.96875 -0.21875 C 1.488281 -0.5 1.128906 -0.882812 0.890625 -1.375 C 0.648438 -1.875 0.53125 -2.441406 0.53125 -3.078125 C 0.53125 -3.691406 0.644531 -4.25 0.875 -4.75 C 1.113281 -5.25 1.457031 -5.644531 1.90625 -5.9375 C 2.351562 -6.238281 2.898438 -6.390625 3.546875 -6.390625 C 4.140625 -6.390625 4.648438 -6.257812 5.078125 -6 C 5.515625 -5.75 5.851562 -5.382812 6.09375 -4.90625 C 6.332031 -4.4375 6.453125 -3.875 6.453125 -3.21875 C 6.453125 -3.113281 6.445312 -3 6.4375 -2.875 C 6.4375 -2.75 6.425781 -2.644531 6.40625 -2.5625 Z M 3.546875 -5.15625 C 3.222656 -5.15625 2.957031 -5.035156 2.75 -4.796875 C 2.550781 -4.554688 2.429688 -4.175781 2.390625 -3.65625 L 4.65625 -3.65625 C 4.65625 -4.113281 4.566406 -4.476562 4.390625 -4.75 C 4.222656 -5.019531 3.941406 -5.15625 3.546875 -5.15625 Z M 3.546875 -5.15625 "/></g></g></g><g fill="#c1ff72" fill-opacity="1"><g transform="translate(210.183537, 156.074792)"><g><path d="M 5.390625 -6.390625 C 5.679688 -6.390625 5.921875 -6.328125 6.109375 -6.203125 C 6.296875 -6.078125 6.4375 -5.878906 6.53125 -5.609375 C 6.625 -5.347656 6.671875 -5.003906 6.671875 -4.578125 L 6.671875 0 L 5.09375 0 L 5.09375 -4.359375 C 5.09375 -4.578125 5.070312 -4.726562 5.03125 -4.8125 C 4.988281 -4.90625 4.910156 -4.953125 4.796875 -4.953125 C 4.691406 -4.953125 4.585938 -4.925781 4.484375 -4.875 C 4.390625 -4.820312 4.28125 -4.71875 4.15625 -4.5625 L 4.15625 0 L 2.859375 0 L 2.859375 -4.359375 C 2.859375 -4.578125 2.835938 -4.726562 2.796875 -4.8125 C 2.753906 -4.90625 2.671875 -4.953125 2.546875 -4.953125 C 2.453125 -4.953125 2.351562 -4.925781 2.25 -4.875 C 2.144531 -4.820312 2.03125 -4.71875 1.90625 -4.5625 L 1.90625 0 L 0.3125 0 L 0.3125 -6.1875 L 1.65625 -6.1875 L 1.78125 -5.578125 C 1.976562 -5.847656 2.175781 -6.050781 2.375 -6.1875 C 2.570312 -6.320312 2.804688 -6.390625 3.078125 -6.390625 C 3.304688 -6.390625 3.503906 -6.328125 3.671875 -6.203125 C 3.835938 -6.085938 3.953125 -5.90625 4.015625 -5.65625 C 4.203125 -5.875 4.40625 -6.050781 4.625 -6.1875 C 4.851562 -6.320312 5.109375 -6.390625 5.390625 -6.390625 Z M 5.390625 -6.390625 "/></g></g></g><g fill="#c1ff72" fill-opacity="1"><g transform="translate(217.161894, 156.074792)"><g><path d="M 2.265625 -1.03125 C 2.265625 -1.363281 2.382812 -1.644531 2.625 -1.875 C 2.863281 -2.113281 3.148438 -2.234375 3.484375 -2.234375 C 3.828125 -2.234375 4.113281 -2.113281 4.34375 -1.875 C 4.582031 -1.644531 4.703125 -1.363281 4.703125 -1.03125 C 4.703125 -0.695312 4.582031 -0.40625 4.34375 -0.15625 C 4.113281 0.0820312 3.828125 0.203125 3.484375 0.203125 C 3.148438 0.203125 2.863281 0.0820312 2.625 -0.15625 C 2.382812 -0.40625 2.265625 -0.695312 2.265625 -1.03125 Z M 2.265625 -5.046875 C 2.265625 -5.378906 2.382812 -5.664062 2.625 -5.90625 C 2.863281 -6.15625 3.148438 -6.28125 3.484375 -6.28125 C 3.828125 -6.28125 4.113281 -6.15625 4.34375 -5.90625 C 4.582031 -5.664062 4.703125 -5.378906 4.703125 -5.046875 C 4.703125 -4.722656 4.582031 -4.4375 4.34375 -4.1875 C 4.113281 -3.945312 3.828125 -3.828125 3.484375 -3.828125 C 3.148438 -3.828125 2.863281 -3.945312 2.625 -4.1875 C 2.382812 -4.4375 2.265625 -4.722656 2.265625 -5.046875 Z M 2.265625 -5.046875 "/></g></g></g><g fill="#c1ff72" fill-opacity="1"><g transform="translate(224.140251, 156.074792)"><g><path d="M 3.484375 -8.265625 C 4.453125 -8.265625 5.179688 -7.894531 5.671875 -7.15625 C 6.160156 -6.414062 6.40625 -5.378906 6.40625 -4.046875 C 6.40625 -2.710938 6.160156 -1.671875 5.671875 -0.921875 C 5.179688 -0.171875 4.453125 0.203125 3.484375 0.203125 C 2.515625 0.203125 1.785156 -0.171875 1.296875 -0.921875 C 0.816406 -1.671875 0.578125 -2.710938 0.578125 -4.046875 C 0.578125 -5.378906 0.816406 -6.414062 1.296875 -7.15625 C 1.785156 -7.894531 2.515625 -8.265625 3.484375 -8.265625 Z M 3.484375 -6.9375 C 3.078125 -6.9375 2.78125 -6.710938 2.59375 -6.265625 C 2.40625 -5.828125 2.3125 -5.085938 2.3125 -4.046875 C 2.3125 -3.242188 2.34375 -2.628906 2.40625 -2.203125 C 2.476562 -1.785156 2.597656 -1.5 2.765625 -1.34375 C 2.941406 -1.195312 3.179688 -1.125 3.484375 -1.125 C 3.765625 -1.125 3.988281 -1.21875 4.15625 -1.40625 C 4.332031 -1.59375 4.460938 -1.898438 4.546875 -2.328125 C 4.628906 -2.753906 4.671875 -3.328125 4.671875 -4.046875 C 4.671875 -4.835938 4.632812 -5.441406 4.5625 -5.859375 C 4.488281 -6.273438 4.367188 -6.554688 4.203125 -6.703125 C 4.035156 -6.859375 3.796875 -6.9375 3.484375 -6.9375 Z M 4.40625 -6.6875 L 4.875 -5.671875 L 2.71875 -1.234375 L 2.1875 -2.046875 Z M 4.40625 -6.6875 "/></g></g></g><g fill="#c1ff72" fill-opacity="1"><g transform="translate(231.118607, 156.074792)"><g><path d="M 3.21875 -8.265625 C 3.820312 -8.265625 4.332031 -8.15625 4.75 -7.9375 C 5.164062 -7.726562 5.476562 -7.445312 5.6875 -7.09375 C 5.894531 -6.75 6 -6.367188 6 -5.953125 C 6 -5.628906 5.941406 -5.3125 5.828125 -5 C 5.710938 -4.6875 5.53125 -4.351562 5.28125 -4 C 5.03125 -3.65625 4.695312 -3.269531 4.28125 -2.84375 C 3.863281 -2.425781 3.347656 -1.945312 2.734375 -1.40625 L 6.1875 -1.40625 L 5.984375 0 L 0.625 0 L 0.625 -1.296875 C 1.15625 -1.816406 1.613281 -2.273438 2 -2.671875 C 2.394531 -3.066406 2.726562 -3.414062 3 -3.71875 C 3.269531 -4.019531 3.488281 -4.289062 3.65625 -4.53125 C 3.820312 -4.78125 3.941406 -5.003906 4.015625 -5.203125 C 4.085938 -5.410156 4.125 -5.609375 4.125 -5.796875 C 4.125 -6.117188 4.03125 -6.375 3.84375 -6.5625 C 3.65625 -6.757812 3.382812 -6.859375 3.03125 -6.859375 C 2.726562 -6.859375 2.460938 -6.789062 2.234375 -6.65625 C 2.015625 -6.53125 1.800781 -6.328125 1.59375 -6.046875 L 0.453125 -6.890625 C 0.753906 -7.304688 1.125 -7.640625 1.5625 -7.890625 C 2.007812 -8.140625 2.5625 -8.265625 3.21875 -8.265625 Z M 3.21875 -8.265625 "/></g></g></g><g fill="#ffde59" fill-opacity="1"><g transform="translate(114.71128, 61.762382)"><g><path d="M 6.0625 0 L 4.03125 0 L 3.5 -4.15625 L 2.953125 0 L 0.953125 0 L 0.046875 -6.1875 L 1.71875 -6.1875 L 2.125 -1.140625 L 2.78125 -5.40625 L 4.328125 -5.40625 L 4.90625 -1.140625 L 5.3125 -6.1875 L 6.9375 -6.1875 Z M 6.0625 0 "/></g></g></g><g fill="#ffde59" fill-opacity="1"><g transform="translate(121.689637, 61.762382)"><g><path d="M 2.65625 -8.8125 L 2.65625 -5.5625 C 2.914062 -5.84375 3.195312 -6.050781 3.5 -6.1875 C 3.800781 -6.320312 4.125 -6.390625 4.46875 -6.390625 C 5.019531 -6.390625 5.441406 -6.226562 5.734375 -5.90625 C 6.023438 -5.582031 6.171875 -5.128906 6.171875 -4.546875 L 6.171875 0 L 4.328125 0 L 4.328125 -4.03125 C 4.328125 -4.40625 4.285156 -4.664062 4.203125 -4.8125 C 4.117188 -4.957031 3.960938 -5.03125 3.734375 -5.03125 C 3.609375 -5.03125 3.484375 -5 3.359375 -4.9375 C 3.234375 -4.875 3.113281 -4.785156 3 -4.671875 C 2.882812 -4.566406 2.769531 -4.4375 2.65625 -4.28125 L 2.65625 0 L 0.8125 0 L 0.8125 -8.640625 Z M 2.65625 -8.8125 "/></g></g></g><g fill="#ffde59" fill-opacity="1"><g transform="translate(128.667994, 61.762382)"><g><path d="M 4.59375 -6.1875 L 4.59375 -1.25 L 6.15625 -1.25 L 6.15625 0 L 1 0 L 1 -1.25 L 2.75 -1.25 L 2.75 -4.921875 L 1.0625 -4.921875 L 1.0625 -6.1875 Z M 3.484375 -9.421875 C 3.796875 -9.421875 4.050781 -9.320312 4.25 -9.125 C 4.457031 -8.925781 4.5625 -8.675781 4.5625 -8.375 C 4.5625 -8.082031 4.457031 -7.835938 4.25 -7.640625 C 4.050781 -7.441406 3.796875 -7.34375 3.484375 -7.34375 C 3.160156 -7.34375 2.894531 -7.441406 2.6875 -7.640625 C 2.488281 -7.835938 2.390625 -8.082031 2.390625 -8.375 C 2.390625 -8.675781 2.488281 -8.925781 2.6875 -9.125 C 2.894531 -9.320312 3.160156 -9.421875 3.484375 -9.421875 Z M 3.484375 -9.421875 "/></g></g></g><g fill="#ffde59" fill-opacity="1"><g transform="translate(135.64635, 61.762382)"><g><path d="M 4.046875 -8.640625 L 4.046875 -1.9375 C 4.046875 -1.695312 4.113281 -1.519531 4.25 -1.40625 C 4.394531 -1.300781 4.59375 -1.25 4.84375 -1.25 C 5 -1.25 5.148438 -1.265625 5.296875 -1.296875 C 5.441406 -1.335938 5.578125 -1.382812 5.703125 -1.4375 L 6.15625 -0.203125 C 5.945312 -0.0976562 5.691406 -0.00390625 5.390625 0.078125 C 5.097656 0.160156 4.753906 0.203125 4.359375 0.203125 C 3.617188 0.203125 3.070312 -0.0078125 2.71875 -0.4375 C 2.375 -0.875 2.203125 -1.453125 2.203125 -2.171875 L 2.203125 -7.375 L 0.375 -7.375 L 0.375 -8.640625 Z M 4.046875 -8.640625 "/></g></g></g><g fill="#ffde59" fill-opacity="1"><g transform="translate(142.624707, 61.762382)"><g><path d="M 2.40625 -2.5625 C 2.445312 -2.21875 2.535156 -1.941406 2.671875 -1.734375 C 2.804688 -1.523438 2.976562 -1.375 3.1875 -1.28125 C 3.394531 -1.1875 3.628906 -1.140625 3.890625 -1.140625 C 4.171875 -1.140625 4.441406 -1.1875 4.703125 -1.28125 C 4.972656 -1.375 5.234375 -1.5 5.484375 -1.65625 L 6.21875 -0.65625 C 5.925781 -0.40625 5.570312 -0.195312 5.15625 -0.03125 C 4.75 0.125 4.28125 0.203125 3.75 0.203125 C 3.039062 0.203125 2.445312 0.0625 1.96875 -0.21875 C 1.488281 -0.5 1.128906 -0.882812 0.890625 -1.375 C 0.648438 -1.875 0.53125 -2.441406 0.53125 -3.078125 C 0.53125 -3.691406 0.644531 -4.25 0.875 -4.75 C 1.113281 -5.25 1.457031 -5.644531 1.90625 -5.9375 C 2.351562 -6.238281 2.898438 -6.390625 3.546875 -6.390625 C 4.140625 -6.390625 4.648438 -6.257812 5.078125 -6 C 5.515625 -5.75 5.851562 -5.382812 6.09375 -4.90625 C 6.332031 -4.4375 6.453125 -3.875 6.453125 -3.21875 C 6.453125 -3.113281 6.445312 -3 6.4375 -2.875 C 6.4375 -2.75 6.425781 -2.644531 6.40625 -2.5625 Z M 3.546875 -5.15625 C 3.222656 -5.15625 2.957031 -5.035156 2.75 -4.796875 C 2.550781 -4.554688 2.429688 -4.175781 2.390625 -3.65625 L 4.65625 -3.65625 C 4.65625 -4.113281 4.566406 -4.476562 4.390625 -4.75 C 4.222656 -5.019531 3.941406 -5.15625 3.546875 -5.15625 Z M 3.546875 -5.15625 "/></g></g></g></svg>